<svg xmlns="http://www.w3.org/2000/svg" viewBox="0 0 58.92 34.37"><path fill="#d80031" d="M0 0h58.92v2.46H0z"/><path fill="#fff" d="M0 2.46h58.92v2.46H0z"/><path fill="#d80031" d="M0 4.91h58.92v2.46H0z"/><path fill="#fff" d="M0 7.37h58.92v2.46H0z"/><path fill="#d80031" d="M0 9.82h58.92v2.45H0z"/><path fill="#fff" d="M0 12.28h58.92v2.46H0z"/><path fill="#d80031" d="M0 14.73h58.92v2.45H0z"/><path fill="#fff" d="M0 17.19h58.92v2.46H0z"/><path fill="#d80031" d="M0 19.64h58.92v2.45H0z"/><path fill="#fff" d="M0 22.1h58.92v2.46H0z"/><path fill="#d80031" d="M0 24.55h58.92v2.46H0z"/><path fill="#fff" d="M0 27.01h58.92v2.46H0z"/><path fill="#d80031" d="M0 29.46h58.92v2.46H0z"/><path fill="#fff" d="M0 31.92h58.92v2.46H0z"/><path fill="#2530a9" d="M0 0h34.37v19.64H0z"/><path d="M9.2 9.82a6.453 6.453 0 0 1 9.82-5.5 7.344 7.344 0 0 0-4.9-1.87c-4.06 0-7.36 3.3-7.36 7.37 0 4.06 3.3 7.36 7.36 7.36 1.88 0 3.6-.71 4.9-1.87-.98.6-2.13.95-3.37.95-3.56.01-6.45-2.88-6.45-6.44" fill="#f5d028"/><path fill="#f5d028" d="M23.94 9.82l3.53-1.36-3.78.3 2.59-2.77-3.27 1.91 1.13-3.61-2.11 3.14-.55-3.75-.39 2.69-.11.77-.04.29-2.12-3.14 1.13 3.61-3.27-1.91 2.59 2.77-3.77-.3 3.53 1.36-3.53 1.37 3.77-.3-2.59 2.76 3.27-1.91-1.13 3.61 2.12-3.13.04.28.11.78.39 2.68.55-3.74 2.11 3.13-1.13-3.61 3.27 1.91-2.59-2.76 3.78.3z"/></svg>