<?xml version="1.0" encoding="utf-8"?>
<!-- Generator: Adobe Illustrator 19.1.0, SVG Export Plug-In . SVG Version: 6.00 Build 0)  -->
<svg version="1.0" id="Capa_1" xmlns="http://www.w3.org/2000/svg" xmlns:xlink="http://www.w3.org/1999/xlink" x="0px" y="0px"
	 width="485.6px" height="265.8px" viewBox="0 0 485.6 265.8" style="enable-background:new 0 0 485.6 265.8;" xml:space="preserve"
	>
<g>
	<g>
		<g>
			<path style="fill:#FFFFFF;" d="M470.6,127h-4.5l-2.5,11.7h-1.8l2.5-11.7h-4.4l0.3-1.5h10.7L470.6,127z"/>
			<path style="fill:#FFFFFF;" d="M472.4,125.5h2.4l1.8,11.4h0l6.5-11.4h2.4l-2.8,13.2h-1.7l2.7-11.6h0l-6.7,11.6h-1.7l-1.7-11.6h0
				l-2.3,11.6h-1.7L472.4,125.5z"/>
		</g>
	</g>
	<g>
		<g>
			<path style="fill-rule:evenodd;clip-rule:evenodd;fill: #ffffff" d="M47.5,23.1C54.3,10.3,70.2,0,82.9,0h89.3l-59.8,113.1H0L47.5,23.1z"/>
			<path style="fill-rule:evenodd;clip-rule:evenodd;fill: #ffffff" d="M229.9,56.7c4.8-9,16-16.3,25-16.3H316l-29.5,56.5c-4.8,9-16,16.3-25,16.3
				h-61.1L229.9,56.7z"/>
			<path style="fill-rule:evenodd;clip-rule:evenodd;fill: #ffffff" d="M332.3,8.9c2.6-4.8,8.5-8.6,13.3-8.6h32l-17.1,31.9
				c-2.6,4.8-8.5,8.6-13.3,8.6h-32L332.3,8.9z"/>
			<polygon style="fill-rule:evenodd;clip-rule:evenodd;fill: #ffffff" points="112.3,113.1 200.6,113.1 153.4,201.2 65.2,201.2 			"/>
			<path style="fill-rule:evenodd;clip-rule:evenodd;fill: #ffffff" d="M153.4,201.2h61.9l-28.2,52.6c-3.5,6.6-11.8,12-18.4,12h-49.9L153.4,201.2
				z"/>
		</g>
		<path style="fill:#FFFFFF;" d="M321,141.2l-16.9,31.9c-1.1,2.1,0.3,3.6,2.4,3.8c1.5,0.1,3.1,0,5.2-0.9l-6.8,12.8
			c-2.4,0.6-3.7,1-6,1c-10,0-14.7-6.8-10.3-15.2l28.5-53.6c1.9-3.5,6.2-6.3,9.7-6.3h8.3l-6.7,12.6h8.6l-7.3,13.8L321,141.2z
			 M235.3,143.6l-0.3,0.6l-7,13.2l-13.1,24.7c-1.1,2.1-3.1,3.9-5.3,5.1c-1.5,0.8-3.1,1.3-4.5,1.3h-8.5l16.5-31.1l7.3-13.8
			c0-0.2,0.1-0.4,0.2-0.5c0.7-1.9-0.1-3.3-2-3.3c-2.1,0-4.7,1.7-5.9,3.8l-7.3,13.8l-13.1,24.7c-1.9,3.5-6.3,6.4-9.8,6.4H174
			l23.9-44.9c5.1-10.5,11.1-17.7,28.4-17.7h22.5c8.6,0,15.8,5,9.1,17.7l-20.5,38.5c-1.9,3.5-6.3,6.4-9.8,6.4h-8.5l16.5-31.1
			l7.3-13.8c1.1-2.1,0.3-3.8-1.8-3.8C239.1,139.8,236.5,141.5,235.3,143.6z M411.9,140.9l-5.3,10h-14.4l4.3-8.1
			c1.1-2.1,0.3-3.8-1.8-3.8c-2.1,0-4.7,1.7-5.8,3.8l-14.5,27.2l-1.3,2.4c-1.1,2.1-0.3,3.8,1.8,3.8c2.1,0,4.7-1.4,6.9-5.9l2-3.7h-3.6
			l5.8-10.9H404l-9.9,18.6l-0.1,0.2c-4.5,8.4-16.2,15.2-26.3,15.2c-10,0-14.6-6.8-10.1-15.2l2.4-4.6l15.6-29.4
			c4.5-8.4,16.2-15.2,26.3-15.2c10.1,0,14.6,6.8,10.1,15.2L411.9,140.9z M331.1,172.5c-1.1,2.1-0.3,3.8,1.8,3.8
			c2.1,0,4.7-1.7,5.8-3.8l15.7-29.5c1.1-2.1,0.3-3.8-1.8-3.8c-2.1,0-4.7,1.7-5.8,3.8L331.1,172.5z M369.8,141.1L352,174.4l-0.1,0.2
			c-4.5,8.4-16.2,15.2-26.3,15.2c-10,0-14.6-6.8-10.1-15.2l18-33.9c4.5-8.4,16.2-15.2,26.3-15.2c10.1,0,14.6,6.8,10.1,15.2
			L369.8,141.1z M262.9,172.5c-1.1,2.1-0.3,3.8,1.8,3.8c2.1,0,4.7-1.7,5.8-3.8l15.8-29.5c1.1-2.1,0.3-3.8-1.8-3.8
			c-2.1,0-4.7,1.7-5.8,3.8L262.9,172.5z M301,141.1l-17.8,33.3l-0.1,0.2c-4.5,8.4-16.2,15.2-26.3,15.2c-10,0-14.6-6.8-10.1-15.2
			l18.1-33.9c4.5-8.4,16.2-15.2,26.3-15.2c10.1,0,14.6,6.8,10.1,15.2L301,141.1z M431,142.9l-0.7,1.3l-6.3,11.9h2.5
			c2.8,0,6.3-2.3,7.8-5.1l4.3-8.1c1.1-2.1,0.3-3.8-1.8-3.8C434.7,139.1,432.1,140.8,431,142.9z M416.9,169.4l-6.8,12.8
			c-1.9,3.5-6.2,6.3-9.7,6.3h-8.5l18.2-34.2l5.5-10.3c7.8-15.2,17.3-18.5,28.4-18.5c12.6,0,14.2,8.3,8.7,18.6l-0.4,0.7l-4.8,9
			l-0.3,0.6c-4.5,8.5-16.5,15.4-26.8,15.4C419.2,169.7,418,169.6,416.9,169.4z"/>
	</g>
</g>
</svg>
